HIERARCHY
ROOT Hips
{
   OFFSET 0.00000 0.00000 0.00000
   CHANNELS 6 Xposition Yposition Zposition Zrotation Xrotation Yrotation
   JOINT Spine
   {
      OFFSET 0.000000 10.701450 0.000000
      CHANNELS 3 Zrotation Xrotation Yrotation
      JOINT Spine1
      {
         OFFSET -0.000000 23.091659 0.114894
         CHANNELS 3 Zrotation Xrotation Yrotation
         JOINT HEad
         {
            OFFSET 0.000000 7.860744 0.010206
            CHANNELS 3 Zrotation Xrotation Yrotation
            End Site
            {
               OFFSET -0.261000 11.496780 2.262555
            }
         }
         JOINT LeftShoulder1
         {
            OFFSET 8.091000 -0.326025 -0.198000
            CHANNELS 3 Zrotation Xrotation Yrotation
            JOINT LeftArm
            {
               OFFSET 9.254430 -0.003042 0.289908
               CHANNELS 3 Zrotation Xrotation Yrotation
               JOINT LeftForeArm
               {
                  OFFSET 29.490208 0.089226 -1.281906
                  CHANNELS 3 Zrotation Xrotation Yrotation
                  JOINT LeftHand
                  {
                     OFFSET 24.807870 0.076824 0.919944
                     CHANNELS 3 Zrotation Xrotation Yrotation
                     End Site
                     {
                        OFFSET 15.069871 -0.540000 1.352619
                     }
                  }
               }
            }
         }
         JOINT RightShoulder
         {
            OFFSET -8.091000 -0.326025 -0.198000
            CHANNELS 3 Zrotation Xrotation Yrotation
            JOINT RightArm
            {
               OFFSET -9.254430 -0.003042 0.289908
               CHANNELS 3 Zrotation Xrotation Yrotation
               JOINT RightForeArm
               {
                  OFFSET -29.607386 0.089226 -1.281906
                  CHANNELS 3 Zrotation Xrotation Yrotation
                  JOINT RightHand
                  {
                     OFFSET -24.742889 0.076824 0.919944
                     CHANNELS 3 Zrotation Xrotation Yrotation
                     End Site
                     {
                        OFFSET -14.968080 -0.540000 1.352619
                     }
                  }
               }
            }
         }
      }
   }
   JOINT LeftUpLeg
   {
      OFFSET 8.051219 -7.800363 0.091485
      CHANNELS 3 Zrotation Xrotation Yrotation
      JOINT LeftLeg
      {
         OFFSET 0.000000 -39.980428 1.235430
         CHANNELS 3 Zrotation Xrotation Yrotation
         JOINT LeftFoot
         {
            OFFSET -0.228195 -37.883157 -1.314531
            CHANNELS 3 Zrotation Xrotation Yrotation
            JOINT LeftToes
            {
               OFFSET -0.036000 -3.973581 7.649189
               CHANNELS 3 Zrotation Xrotation Yrotation
               End Site
               {
                  OFFSET 0.072000 -0.042705 8.801811
               }
            }
         }
      }
   }
   JOINT RightUpLeg
   {
      OFFSET -8.051219 -7.800363 0.091485
      CHANNELS 3 Zrotation Xrotation Yrotation
      JOINT RightLeg
      {
         OFFSET 0.000000 -39.980428 1.235430
         CHANNELS 3 Zrotation Xrotation Yrotation
         JOINT RightFoot
         {
            OFFSET 0.228195 -37.883157 -1.314531
            CHANNELS 3 Zrotation Xrotation Yrotation
            JOINT RightToes
            {
               OFFSET 0.036000 -3.973581 7.649189
               CHANNELS 3 Zrotation Xrotation Yrotation
               End Site
               {
                  OFFSET -0.072000 -0.123705 8.801811
               }
            }
         }
      }
   }
}
MOTION
Frames: 18
Frame Time: 0.016670
89.857234 72.188200 -109.222153 -14.986630 -14.394118 -54.118109 -3.027336 26.756557 90.056434 11.776230 2.828414 -79.850840 -24.198455 20.569371 2.157795 -14.180780 -5.962291 6.196555 -164.929206 -58.054190 -146.747338 -39.573969 72.101540 -83.525161 -3.444344 -0.885853 -15.655509 -9.112458 71.492587 58.794234 29.395737 88.592444 263.298902 47.036149 187.027477 110.392495 -80.689437 -77.078589 -42.452867 7.619346 -11.447441 48.306547 366.020794 39.596888 -300.478627 3.543012 17.774297 -26.404084 -37.517222 -15.800116 -41.175351 -29.838552 -12.006745 11.654907 -359.668445 25.133754 401.551876 -12.757383 34.767941 17.540066 47.238302 -6.288994 -32.508439
92.546071 75.484504 -107.617653 -19.019437 -12.877559 -53.540419 3.153282 27.362178 87.655800 15.419803 4.329285 -79.998857 -25.757880 22.268300 1.673192 -16.728105 -4.520329 6.517828 -160.349346 -55.861938 -143.348623 -36.032752 73.523202 -83.395025 -1.443609 0.083325 -9.966040 -10.454245 71.832246 59.874763 32.720083 85.417779 259.934870 49.036148 187.363126 114.883140 -78.625566 -76.703946 -36.921107 7.418955 -6.551251 46.396645 367.384537 34.621447 -310.334727 -8.424082 26.140425 -19.748225 -19.226540 2.580989 -45.007310 -25.430545 -3.057417 5.857228 -360.945417 28.653613 405.339297 -10.661901 31.847287 16.710399 30.827410 -20.592283 -27.411009
95.184248 78.847088 -106.375254 -22.010235 -10.762113 -52.813799 8.431856 28.010689 84.760885 17.239415 4.536389 -80.744488 -27.466250 23.080445 1.409813 -19.108516 -4.673990 6.589313 -156.239963 -54.576200 -141.001319 -33.972541 73.265861 -84.936831 -2.119058 -0.171160 -9.223929 -10.770533 71.350253 61.078775 36.085795 83.222105 256.355796 48.444773 187.918981 116.361698 -74.959892 -72.039030 -32.136948 9.017608 -4.351110 42.090593 368.641948 31.277745 -319.806259 -11.619231 30.652052 -14.918416 -11.793568 -8.679698 -33.275951 -19.228321 4.766458 1.294725 -361.384435 34.216669 410.809951 -8.154901 25.854288 17.052214 34.705902 -17.968566 -29.232038
97.604426 81.928300 -105.506533 -23.854316 -8.611353 -51.764132 11.928670 28.705642 82.216981 18.241584 5.000591 -81.156301 -29.155888 23.162657 1.308253 -20.865890 -5.294851 6.972436 -152.198403 -54.810554 -139.427684 -32.337384 72.609835 -86.814730 -0.238166 0.128138 -6.414112 -11.048313 70.598994 62.093359 39.958656 81.455839 252.387347 46.514244 188.625564 116.572437 -71.861390 -70.352567 -28.625663 10.433801 -3.347210 37.033648 368.716998 27.747384 -326.234806 -15.095608 33.862333 -9.248792 3.608748 -0.018641 -38.989254 -12.139320 11.799268 -2.861174 -359.834146 39.159059 413.688193 -19.848234 19.372588 16.896701 50.918671 -21.923652 -23.205651
99.824103 84.615668 -105.125588 -22.255389 -6.910102 -53.313701 11.137071 29.612842 81.684684 18.244135 5.971109 -80.568590 -29.835106 21.447223 1.056136 -21.244306 -7.597404 7.322248 -149.046421 -56.850752 -138.102682 -31.503418 71.015553 -89.408652 0.280850 -0.200897 -6.399801 -10.643032 68.474593 62.758039 44.284211 80.325026 247.829726 44.365402 189.093500 116.992097 -68.093919 -66.085871 -24.633333 9.366535 -3.442538 31.396860 367.531851 21.855871 -331.357584 -19.653774 33.966558 -5.172137 6.112241 -6.144350 -28.325899 -7.861988 14.849746 -6.963986 -360.454245 40.454343 412.464687 -8.517941 16.123490 17.343163 26.773203 -27.196019 -26.384968
101.997670 86.815451 -105.176314 -18.249987 -6.323779 -55.205909 8.053081 28.555136 81.988430 17.358507 6.110978 -79.632028 -30.610398 18.681471 1.022282 -21.174652 -9.487595 6.311727 -147.023374 -60.495498 -136.728462 -31.175490 68.832092 -92.038998 2.053856 -0.272458 -4.555752 -10.144383 66.798485 63.646728 49.535920 80.332430 242.667168 42.571657 189.986643 117.570573 -65.002494 -62.996563 -20.716126 6.798025 -5.744580 26.960068 366.849351 18.176185 -333.893798 -25.151518 32.813356 -0.934700 29.273689 -6.262146 -31.903762 -4.579206 16.242197 -6.671793 -360.801109 40.633451 411.461005 -23.452715 13.030014 17.934439 33.443700 -40.338985 -16.760237
103.981503 88.397454 -105.623301 -14.070267 -6.429996 -59.130655 3.745279 26.707957 83.055838 15.537562 6.112212 -77.229741 -31.152882 14.677163 1.150851 -20.331742 -11.029557 5.103812 -145.768354 -66.537142 -135.351878 -30.944210 65.795383 -93.844299 3.032810 -0.586757 -4.425898 -9.585305 64.887897 65.408050 55.132150 81.097220 236.929946 42.167088 190.945998 118.978016 -61.693984 -58.562650 -15.610080 4.771299 -8.956736 21.805329 366.383669 17.407441 -335.176507 -30.405820 32.434150 3.521211 26.594151 -8.369499 -21.081456 -3.543755 17.343787 -5.159217 -361.311406 37.790378 406.708395 -25.429313 13.163450 19.031658 28.950433 -45.897734 -20.933015
105.789183 89.473361 -106.340903 -9.459594 -5.962404 -63.823945 -1.494462 24.212442 83.022814 14.088040 5.297797 -74.480303 -31.949801 11.318144 1.486413 -17.779693 -13.297511 4.541926 -145.254846 -75.183792 -134.977406 -32.083205 60.568185 -95.828073 4.728521 -0.754323 -3.850353 -9.180660 63.728096 68.018480 60.854096 82.279751 229.976376 41.685519 192.344889 120.321418 -58.548573 -54.961620 -11.314240 3.849596 -12.768262 17.142525 365.506836 16.101271 -334.163208 -36.874962 30.608817 7.520306 44.331493 -9.774142 -33.265849 -3.465230 17.100553 -2.650593 -361.934647 33.398631 401.836558 -34.649321 13.757030 20.135845 28.171559 -50.502306 -24.681862
107.754944 89.885510 -107.232388 -5.026271 -4.520698 -71.566558 -7.284930 21.221546 80.414174 14.048085 4.855015 -72.425161 -32.270455 9.792543 1.831684 -9.018064 -18.225296 -1.676819 -157.108353 -98.554753 -139.410991 -36.851398 49.979704 -100.996204 6.901339 -1.435876 -5.621381 -4.269240 62.614079 59.767632 65.449270 93.991463 222.420684 43.579161 192.084754 123.380073 -55.675799 -50.431607 -5.651743 5.202202 -16.012142 10.749819 362.700694 14.234900 -332.956860 -31.074489 29.264304 9.906658 33.311533 -8.814827 -22.399003 -5.020749 14.844554 0.078634 -362.984994 27.977937 399.601529 -40.778398 14.363669 21.508194 43.970224 -41.869623 -31.822463
109.651478 89.905013 -108.115261 -1.865623 -5.056230 -77.407190 -12.247279 17.493957 79.645750 15.277099 7.248205 -68.272208 -32.756628 9.702285 2.349742 -3.305236 -22.536995 -5.581988 -169.978232 -117.113524 -146.093211 -40.721919 42.072224 -104.955166 8.479927 -2.128352 -8.367782 -3.752517 60.866657 55.360637 72.712760 100.446299 214.002312 43.391502 193.982195 124.314484 -52.740494 -46.143269 1.338539 5.820064 -18.835918 3.093808 360.332340 13.424291 -332.753320 -25.627201 28.174392 10.935814 24.094129 -9.941443 -18.223985 -7.194277 14.164305 2.404385 -363.610585 22.259515 397.738362 -45.650648 15.207747 23.129462 47.468462 -37.616307 -38.975522
111.525486 89.621113 -108.882101 -0.052465 -5.804770 -81.011610 -15.505781 13.665539 79.028000 17.394969 10.028777 -63.710878 -33.369753 10.940886 3.033896 1.323494 -27.358010 -10.197223 -178.774765 -128.532931 -152.407994 -42.616658 34.260048 -107.130752 9.577789 -2.692363 -9.448824 -7.058285 58.913872 53.055656 82.418069 103.400519 204.800545 40.128188 198.067699 121.039490 -51.105432 -42.342784 10.912941 5.597448 -20.626895 -4.948768 359.357371 12.115560 -332.951423 -20.648594 27.198336 11.323392 16.591366 -13.266117 -17.753427 -9.494765 14.933310 5.209312 -363.285413 16.544999 396.423879 -49.845570 14.143512 24.100920 43.611123 -35.356290 -42.840067
113.414381 89.149550 -109.485758 2.157109 -6.892866 -84.594065 -17.979242 10.590038 77.833660 18.454503 11.071974 -60.019222 -32.789863 11.024767 3.685449 2.951700 -31.053336 -12.146416 -185.093031 -136.817036 -156.580147 -44.901329 28.828145 -109.979952 9.824869 -3.142221 -9.840406 -10.450733 57.125725 54.330750 92.104083 105.015525 195.600553 37.628274 200.059574 118.943359 -48.415079 -40.389589 17.419520 5.064464 -22.699859 -12.317658 359.063263 10.757403 -332.612673 -16.264794 26.212196 11.801165 11.040026 -18.854870 -18.188702 -12.682738 15.211914 7.941678 -362.528573 9.669089 394.615108 -52.116731 12.412235 24.522505 37.241139 -34.049996 -44.465911
115.135000 88.164300 -109.943579 3.792334 -8.504951 -88.035900 -20.589614 8.284940 76.215260 18.582479 12.864262 -57.263606 -30.898546 10.260245 4.177824 2.942417 -34.102086 -14.660694 -185.064426 -141.409245 -156.170254 -45.848895 25.602759 -109.788181 10.405314 -2.566711 -10.854819 -15.489891 56.101558 56.692503 100.904024 106.097488 186.497905 34.166806 201.577092 115.137100 -45.593172 -36.956770 17.516276 4.406065 -24.040929 -19.166655 358.725961 8.981106 -330.915179 -12.056738 25.448554 12.082290 9.069907 -16.814119 -14.085700 -16.626586 15.657650 10.559880 -360.545332 2.044815 390.951723 -50.783887 11.337166 24.927288 27.430738 -32.414172 -48.044548
116.729572 87.303208 -110.217446 3.893418 -8.516079 -90.562359 -23.221685 7.143157 73.631256 19.673638 14.433419 -54.910568 -28.308448 9.420527 4.579799 2.314281 -36.730240 -18.868451 -181.190480 -141.789468 -154.512881 -44.815712 24.444182 -105.442951 11.346472 -1.168845 -13.358049 -20.605689 54.537285 60.960203 109.345147 106.947041 178.198461 27.045179 202.786937 105.775363 -41.239098 -32.432105 11.320623 5.177990 -24.013323 -26.146709 358.876662 7.367861 -328.776374 -8.299866 25.698261 11.748995 5.789740 -14.380130 -8.785480 -18.889566 17.319949 13.246835 -357.553737 -6.204228 385.887957 -48.645567 9.858919 24.564285 21.290214 -29.713642 -48.339267
118.263157 86.395634 -110.434635 2.246218 -8.320396 -92.273738 -22.553551 6.317671 70.622230 21.494206 17.660289 -52.513493 -26.434475 8.820438 5.197451 0.088399 -38.916365 -21.359424 -177.967805 -141.290195 -154.338370 -44.194278 24.550929 -102.425209 11.554207 0.315903 -14.778390 -24.596093 53.317713 66.098807 117.817280 105.338750 169.591179 22.313137 202.392247 100.303753 -36.038209 -26.360915 6.624536 6.421679 -22.486842 -33.369880 358.800847 6.120684 -326.666009 -5.318603 26.768360 10.334865 1.529151 -11.799130 -3.077159 -20.528502 20.676636 15.594963 -354.353493 -14.693069 379.486294 -46.602101 8.136624 23.384920 17.702698 -27.083351 -46.954023
119.712666 85.441207 -110.553358 -0.242120 -7.912800 -93.372272 -22.770449 8.115132 67.691710 20.039912 17.644561 -49.885786 -25.788262 6.215383 7.475327 -3.306351 -40.223312 -22.787446 -176.421956 -140.299462 -157.197500 -41.296765 24.012546 -96.331485 11.935965 1.747368 -13.133511 -29.724488 50.731360 73.179664 127.126828 101.965702 163.019704 15.809166 199.852346 91.898645 -29.369410 -29.967735 18.096523 8.280857 -19.713861 -39.678628 358.249378 4.021570 -322.769578 -2.491358 28.092672 8.190925 -4.027419 -9.435763 2.226528 -22.022794 23.536326 19.122213 -351.075876 -21.162523 371.539669 -46.212295 7.217302 23.595647 20.805776 -22.681941 -41.722665
121.098793 84.501294 -110.614928 -2.874838 -8.133233 -92.414283 -21.516882 7.344010 65.734342 17.623780 16.684598 -46.177461 -26.187022 1.324951 10.071713 -6.798089 -40.088924 -25.414956 -177.999197 -139.751695 -162.545661 -36.715279 24.268408 -88.285345 11.020178 2.386037 -10.690936 -34.607315 49.851843 78.074847 137.844364 97.268239 157.255940 8.414663 196.963750 83.492656 -22.486588 -11.350039 7.468956 9.101900 -16.782530 -45.353330 357.861013 1.561484 -317.640871 0.494580 29.275499 5.786143 -8.761772 -6.884052 4.212950 -23.914900 25.919733 22.643134 -348.268095 -25.555322 362.943166 -48.771666 6.618064 24.433175 23.579551 -22.242202 -36.038721
122.401598 83.721961 -110.557364 -5.294675 -8.215431 -91.170881 -21.811241 8.154804 62.642793 16.299948 17.201005 -43.438439 -26.368335 0.250201 12.079226 -10.080371 -40.942876 -23.843342 -180.385692 -140.271267 -168.463761 -34.870616 26.163315 -85.652539 9.992463 2.910739 -10.025142 -38.117107 48.339906 82.287285 146.046151 95.773841 153.551245 0.526565 190.966666 76.308718 -21.256640 -16.950638 22.069728 10.032204 -14.693644 -49.669436 356.850173 -0.652931 -311.582821 3.515819 30.553847 3.538137 -13.279135 -4.365958 5.711709 -25.443213 26.938297 26.214158 -345.320431 -26.977244 355.884821 -49.885366 6.605677 25.231962 25.740374 -22.805605 -32.064128
